<svg width="102" height="78" viewBox="0 0 102 78" fill="none" xmlns="http://www.w3.org/2000/svg">
<circle cx="52.2363" cy="25.3181" r="17.0652" stroke="white" stroke-opacity="0.96" stroke-width="4.9"/>
<rect x="16.8101" width="4.54321" height="45.4321" rx="2.27161" fill="white" fill-opacity="0.96"/>
<path d="M0 16.7479C0 15.4934 1.01703 14.4763 2.27161 14.4763C3.52618 14.4763 4.54321 15.4934 4.54321 16.7479V33.8882C4.54321 35.1428 3.52618 36.1598 2.27161 36.1598C1.01703 36.1598 0 35.1428 0 33.8882V16.7479Z" fill="white" fill-opacity="0.96"/>
<rect x="79.8574" y="0.567871" width="4.54321" height="45.4321" rx="2.27161" fill="white" fill-opacity="0.96"/>
<path d="M51.075 23.0494L55.7151 25.8734L51.0157 28.5975L51.075 23.0494Z" stroke="white" stroke-opacity="0.96" stroke-width="3"/>
<path d="M96.667 16.7479C96.667 15.4934 97.684 14.4763 98.9386 14.4763C100.193 14.4763 101.21 15.4934 101.21 16.7479V33.8882C101.21 35.1428 100.193 36.1598 98.9386 36.1598C97.684 36.1598 96.667 35.1428 96.667 33.8882V16.7479Z" fill="white" fill-opacity="0.96"/>
<path d="M40.6865 74H39.3594V62.4072H39.2803L33.8838 68.9639L28.4873 62.4072H28.4082V74H27.0811V60.5H28.5576L33.8838 66.96L39.21 60.5H40.6865V74ZM48.1045 73.0859C49.2939 73.0859 50.2988 72.667 51.1191 71.8291C51.9395 70.9854 52.3496 69.9688 52.3496 68.7793C52.3496 67.5898 51.9395 66.5791 51.1191 65.7471C50.2988 64.915 49.2939 64.499 48.1045 64.499C46.9385 64.499 45.9395 64.918 45.1074 65.7559C44.2754 66.5938 43.8594 67.6016 43.8594 68.7793C43.8594 69.9688 44.2725 70.9854 45.0986 71.8291C45.9248 72.667 46.9268 73.0859 48.1045 73.0859ZM52.0684 72.6904C50.9727 73.7686 49.6514 74.3076 48.1045 74.3076C46.5576 74.3076 45.2334 73.7686 44.1318 72.6904C43.0361 71.6064 42.4883 70.3027 42.4883 68.7793C42.4883 67.2559 43.0391 65.958 44.1406 64.8857C45.248 63.8076 46.5693 63.2686 48.1045 63.2686C49.6514 63.2686 50.9727 63.8076 52.0684 64.8857C53.1699 65.958 53.7207 67.2559 53.7207 68.7793C53.7207 70.3027 53.1699 71.6064 52.0684 72.6904ZM62.8789 64.8242L56.2871 72.7256V72.7607H62.8789V74H54.582V72.7607L61.165 64.8594V64.8242H54.582V63.5762H62.8789V64.8242ZM75.0957 68.7793C75.0957 68.9961 75.0752 69.207 75.0342 69.4121H65.3047C65.4629 70.4551 65.9346 71.3281 66.7197 72.0312C67.5107 72.7344 68.4424 73.0859 69.5146 73.0859C70.3174 73.0859 71.0498 72.8809 71.7119 72.4707C72.3799 72.0605 72.9014 71.5156 73.2764 70.8359L74.2783 71.5303C73.7744 72.3564 73.1006 73.0273 72.2568 73.543C71.4131 74.0527 70.499 74.3076 69.5146 74.3076C67.9795 74.3076 66.667 73.7686 65.5771 72.6904C64.4932 71.6064 63.9512 70.3027 63.9512 68.7793C63.9512 67.2559 64.4932 65.958 65.5771 64.8857C66.667 63.8076 67.9795 63.2686 69.5146 63.2686C71.0498 63.2686 72.3623 63.8076 73.4521 64.8857C74.5479 65.958 75.0957 67.2559 75.0957 68.7793ZM65.3047 68.1641H73.7422C73.584 67.1211 73.1064 66.251 72.3096 65.5537C71.5127 64.8506 70.5781 64.499 69.5059 64.499C68.4395 64.499 67.5107 64.8506 66.7197 65.5537C65.9346 66.251 65.4629 67.1211 65.3047 68.1641Z" fill="white"/>
</svg>
